<svg id="vector" xmlns="http://www.w3.org/2000/svg" width="899.027" height="199.784" viewBox="0 0 899.027 199.784">
  <path id="Path_3" data-name="Path 3" d="M153.508,35.99h-46.14s-5.645,1.813-6.223,7.648l-11.2,133.75s.145,9.227-6.348,9.227H51.736s-6.4.081-5.283-8.731L58.212,44.739s1-8.6-6.6-8.6H6.373s-7.035.577-6.322-8.749L1.8,9.788S1.685,2.239,10.41,2.239H155.324s7.469.379,7.947,3.77l-1.436,23.568C161.835,29.586,160.878,35.7,153.508,35.99Z" transform="translate(0 12.67)" fill="#032c57"/>
  <path id="Path_4" data-name="Path 4" d="M206.62,174.717,151.792,7.586a8.529,8.529,0,0,0-7.559-5.222H110.6c-5.555.46-7.858,6.251-7.858,6.251L18.736,180.67c-1.165,5.2,5.211,5.628,5.211,5.628H51.2c8.3-.226,10.738-5.854,10.738-5.854l13.737-29.656c2.664-6.061,9.9-5.953,9.9-5.953h59.949c6.376.1,8.408,4.05,8.408,4.05l8.905,29.332c2.077,8.288,9.193,8.081,9.193,8.081h29.6C210.558,185.242,206.62,174.717,206.62,174.717Zm-70.84-59.51H99.394s-6.3-1.155-4.109-7.36l24.023-51.618a4.35,4.35,0,0,1,4.109-2.778s2.114-.478,3.639,4.122l14.64,48.371C141.7,105.934,144.5,114.728,135.78,115.206Z" transform="translate(105.231 13.376)" fill="#032c57"/>
  <path id="Path_5" data-name="Path 5" d="M294.661,174.717,239.834,7.586A8.508,8.508,0,0,0,232.3,2.363h-33.65c-5.554.46-7.858,6.251-7.858,6.251L106.778,180.67c-1.165,5.2,5.228,5.628,5.228,5.628h27.237c8.3-.226,10.762-5.854,10.762-5.854l13.732-29.656c2.664-6.061,9.9-5.953,9.9-5.953h59.929c6.393.1,8.4,4.05,8.4,4.05l8.91,29.332c2.078,8.288,9.19,8.081,9.19,8.081h29.595C298.6,185.242,294.661,174.717,294.661,174.717Zm-70.837-59.51H187.437s-6.307-1.155-4.109-7.36l24.021-51.618a4.376,4.376,0,0,1,4.109-2.778s2.111-.478,3.643,4.122l14.638,48.371C229.745,105.934,232.535,114.728,223.825,115.206Z" transform="translate(603.502 13.376)" fill="#032c57"/>
  <path id="Path_6" data-name="Path 6" d="M50.564,155.845a6.346,6.346,0,0,0,5.744,6.593H83.971c5.744,0,6.7-5.547,6.7-5.547l7.144-90.312L61.348,6.536Z" transform="translate(286.169 36.992)" fill="#032c57"/>
  <path id="Path_7" data-name="Path 7" d="M211.57,0H185.822c-8.037,0-8.037,8.027-8.037,8.027l-7.658,116.162a12.394,12.394,0,0,1-1.807,6.386,2.7,2.7,0,0,1-2.429.974c-2.6-.856-4.669-4.2-4.669-4.2L98.617,23.712c-4.308-8.6-9.474-8.027-9.474-8.027h-31.3a5.438,5.438,0,0,0-5.076,2.489l105.593,174.77c1.68,3.428,5.067,5.276,7.09,6.115a11.582,11.582,0,0,0,2.583.577H197.8c7.758-.577,8.137-6.215,8.137-6.215L218,5.556C217.6.289,211.57,0,211.57,0Z" transform="translate(298.625 0)" fill="#032c57"/>
  <path id="Path_8" data-name="Path 8" d="M253.7,44.979a105.067,105.067,0,0,0-8.178-14.043c-22.5-29.8-66.345-28.583-66.345-28.583H99.4c-7.8,0-7.938,6.783-7.938,6.783L80.478,176.78c-.723,10.038,6.755,9.615,6.755,9.615h78.544c61.168,2.733,83.284-45.765,83.284-45.765C270.871,93.937,259.79,58.544,253.7,44.979Zm-73.575,106s-8.986,1.524-12.066,1.524H134.187s-8.814,0-7.668-9.371l6.322-101.343s-.587-5.168,9.763-5.926h28.6s35.917-.343,45.065,32.957a83.362,83.362,0,0,1,1.678,9.867C219.18,93.4,219.926,140.675,180.128,150.976Z" transform="translate(455.185 13.278)" fill="#032c57"/>
</svg>
